<svg width="65" height="56" viewBox="0 0 65 56" fill="none" xmlns="http://www.w3.org/2000/svg">
    <rect width="65" height="56" fill="#C4C4C4"/>
    <path d="M25.792 19.52C26.944 19.52 27.824 19.68 28.432 20L27.664 23.744C26.896 23.328 25.888 23.12 24.64 23.12C23.616 23.12 22.608 23.424 21.616 24.032C20.656 24.608 19.856 25.504 19.216 26.72C18.608 27.904 18.304 29.344 18.304 31.04V44H14.464V20H17.584L18.112 23.936C19.456 20.992 22.016 19.52 25.792 19.52ZM46.231 40.928C48.503 40.928 50.279 41.44 51.559 42.464C52.839 43.488 53.479 44.88 53.479 46.64C53.479 48.176 52.951 49.52 51.895 50.672C50.839 51.856 49.399 52.752 47.575 53.36C45.783 54 43.799 54.32 41.623 54.32C37.975 54.32 35.223 53.728 33.367 52.544C31.511 51.392 30.583 49.872 30.583 47.984C30.583 46.896 30.951 45.936 31.687 45.104C32.455 44.272 33.495 43.68 34.807 43.328C33.815 42.848 33.015 42.24 32.407 41.504C31.831 40.768 31.543 39.904 31.543 38.912C31.543 37.728 31.863 36.752 32.503 35.984C33.143 35.184 34.023 34.592 35.143 34.208C33.991 33.504 33.111 32.592 32.503 31.472C31.927 30.32 31.639 29.04 31.639 27.632C31.639 26.064 32.055 24.672 32.887 23.456C33.719 22.208 34.887 21.248 36.391 20.576C37.895 19.872 39.591 19.52 41.479 19.52C43.271 19.52 44.903 19.84 46.375 20.48C47.271 17.216 49.527 15.584 53.143 15.584L54.007 18.944C50.871 18.944 48.967 19.824 48.295 21.584C49.255 22.32 49.991 23.2 50.503 24.224C51.047 25.248 51.319 26.384 51.319 27.632C51.319 29.2 50.903 30.608 50.071 31.856C49.239 33.072 48.071 34.032 46.567 34.736C45.063 35.408 43.367 35.744 41.479 35.744C40.071 35.744 38.839 35.6 37.783 35.312C36.823 35.536 36.135 35.888 35.719 36.368C35.303 36.848 35.095 37.504 35.095 38.336C35.095 39.168 35.383 39.808 35.959 40.256C36.535 40.704 37.303 40.928 38.263 40.928H46.231ZM41.479 22.64C39.815 22.64 38.423 23.104 37.303 24.032C36.183 24.96 35.623 26.16 35.623 27.632C35.623 29.104 36.183 30.304 37.303 31.232C38.423 32.16 39.815 32.624 41.479 32.624C43.143 32.624 44.535 32.16 45.655 31.232C46.775 30.304 47.335 29.104 47.335 27.632C47.335 26.16 46.775 24.96 45.655 24.032C44.535 23.104 43.143 22.64 41.479 22.64ZM42.055 51.104C44.487 51.104 46.407 50.704 47.815 49.904C49.223 49.136 49.927 48.192 49.927 47.072C49.927 46.144 49.559 45.44 48.823 44.96C48.119 44.48 46.903 44.24 45.175 44.24H38.743C37.271 44.24 36.135 44.496 35.335 45.008C34.535 45.552 34.135 46.288 34.135 47.216C34.135 48.432 34.807 49.376 36.151 50.048C37.495 50.752 39.463 51.104 42.055 51.104Z" fill="black"/>
</svg>
